<svg xmlns="http://www.w3.org/2000/svg" xmlns:xlink="http://www.w3.org/1999/xlink" width="250" zoomAndPan="magnify" viewBox="0 0 187.5 187.499992" height="250" preserveAspectRatio="xMidYMid meet" version="1.0"><path fill="#00807b" d="M 187 93.5 C 187 95.03125 186.964844 96.558594 186.890625 98.089844 C 186.8125 99.617188 186.699219 101.140625 186.550781 102.664062 C 186.402344 104.1875 186.214844 105.707031 185.988281 107.21875 C 185.765625 108.734375 185.503906 110.242188 185.203125 111.742188 C 184.90625 113.242188 184.570312 114.734375 184.199219 116.21875 C 183.828125 117.703125 183.417969 119.179688 182.976562 120.640625 C 182.53125 122.105469 182.050781 123.558594 181.535156 125 C 181.019531 126.441406 180.46875 127.867188 179.882812 129.28125 C 179.296875 130.695312 178.679688 132.09375 178.023438 133.476562 C 177.371094 134.859375 176.683594 136.226562 175.960938 137.578125 C 175.238281 138.925781 174.484375 140.257812 173.699219 141.570312 C 172.914062 142.882812 172.09375 144.175781 171.242188 145.445312 C 170.394531 146.71875 169.511719 147.96875 168.601562 149.199219 C 167.691406 150.429688 166.75 151.632812 165.777344 152.816406 C 164.808594 154 163.808594 155.15625 162.78125 156.292969 C 161.753906 157.425781 160.699219 158.535156 159.617188 159.617188 C 158.535156 160.699219 157.425781 161.753906 156.292969 162.78125 C 155.15625 163.808594 154 164.808594 152.816406 165.777344 C 151.632812 166.75 150.429688 167.691406 149.199219 168.601562 C 147.96875 169.511719 146.71875 170.394531 145.445312 171.242188 C 144.175781 172.09375 142.882812 172.914062 141.570312 173.699219 C 140.257812 174.484375 138.925781 175.238281 137.578125 175.960938 C 136.226562 176.683594 134.859375 177.371094 133.476562 178.023438 C 132.09375 178.679688 130.695312 179.296875 129.28125 179.882812 C 127.867188 180.46875 126.441406 181.019531 125 181.535156 C 123.558594 182.050781 122.105469 182.53125 120.640625 182.976562 C 119.179688 183.417969 117.703125 183.828125 116.21875 184.199219 C 114.734375 184.570312 113.242188 184.90625 111.742188 185.203125 C 110.242188 185.503906 108.734375 185.765625 107.21875 185.988281 C 105.707031 186.214844 104.1875 186.402344 102.664062 186.550781 C 101.140625 186.699219 99.617188 186.8125 98.089844 186.890625 C 96.558594 186.964844 95.03125 187 93.5 187 C 91.96875 187 90.441406 186.964844 88.914062 186.890625 C 87.382812 186.8125 85.859375 186.699219 84.335938 186.550781 C 82.8125 186.402344 81.292969 186.214844 79.78125 185.988281 C 78.269531 185.765625 76.761719 185.503906 75.257812 185.203125 C 73.757812 184.90625 72.265625 184.570312 70.78125 184.199219 C 69.296875 183.828125 67.824219 183.417969 66.359375 182.976562 C 64.894531 182.53125 63.441406 182.050781 62 181.535156 C 60.558594 181.019531 59.132812 180.46875 57.71875 179.882812 C 56.304688 179.296875 54.90625 178.679688 53.523438 178.023438 C 52.140625 177.371094 50.773438 176.683594 49.425781 175.960938 C 48.074219 175.238281 46.746094 174.484375 45.433594 173.699219 C 44.121094 172.914062 42.828125 172.09375 41.554688 171.242188 C 40.28125 170.394531 39.03125 169.511719 37.800781 168.601562 C 36.574219 167.691406 35.367188 166.75 34.183594 165.777344 C 33 164.808594 31.84375 163.808594 30.710938 162.78125 C 29.574219 161.753906 28.46875 160.699219 27.386719 159.617188 C 26.304688 158.535156 25.25 157.425781 24.222656 156.292969 C 23.195312 155.15625 22.195312 154 21.222656 152.816406 C 20.253906 151.632812 19.3125 150.429688 18.398438 149.199219 C 17.488281 147.96875 16.609375 146.71875 15.757812 145.445312 C 14.90625 144.175781 14.089844 142.882812 13.300781 141.570312 C 12.515625 140.257812 11.761719 138.925781 11.039062 137.578125 C 10.320312 136.226562 9.632812 134.859375 8.976562 133.476562 C 8.324219 132.09375 7.703125 130.695312 7.117188 129.28125 C 6.53125 127.867188 5.980469 126.441406 5.464844 125 C 4.949219 123.558594 4.46875 122.105469 4.027344 120.640625 C 3.582031 119.179688 3.175781 117.703125 2.800781 116.21875 C 2.429688 114.734375 2.09375 113.242188 1.796875 111.742188 C 1.5 110.242188 1.238281 108.734375 1.011719 107.21875 C 0.789062 105.707031 0.601562 104.1875 0.449219 102.664062 C 0.300781 101.140625 0.1875 99.617188 0.113281 98.089844 C 0.0390625 96.558594 0 95.03125 0 93.5 C 0 91.96875 0.0390625 90.441406 0.113281 88.914062 C 0.1875 87.382812 0.300781 85.859375 0.449219 84.335938 C 0.601562 82.8125 0.789062 81.292969 1.011719 79.78125 C 1.238281 78.269531 1.5 76.761719 1.796875 75.257812 C 2.09375 73.757812 2.429688 72.265625 2.800781 70.78125 C 3.175781 69.296875 3.582031 67.824219 4.027344 66.359375 C 4.46875 64.894531 4.949219 63.441406 5.464844 62 C 5.980469 60.558594 6.53125 59.132812 7.117188 57.71875 C 7.703125 56.304688 8.324219 54.90625 8.976562 53.523438 C 9.632812 52.140625 10.320312 50.773438 11.039062 49.425781 C 11.761719 48.074219 12.515625 46.746094 13.300781 45.433594 C 14.089844 44.121094 14.90625 42.828125 15.757812 41.554688 C 16.609375 40.28125 17.488281 39.03125 18.398438 37.800781 C 19.3125 36.574219 20.253906 35.367188 21.222656 34.183594 C 22.195312 33 23.195312 31.84375 24.222656 30.710938 C 25.25 29.574219 26.304688 28.46875 27.386719 27.386719 C 28.46875 26.304688 29.574219 25.25 30.710938 24.222656 C 31.84375 23.195312 33 22.195312 34.183594 21.222656 C 35.367188 20.253906 36.574219 19.3125 37.800781 18.398438 C 39.03125 17.488281 40.28125 16.609375 41.554688 15.757812 C 42.828125 14.90625 44.121094 14.089844 45.433594 13.300781 C 46.746094 12.515625 48.074219 11.761719 49.425781 11.039062 C 50.773438 10.320312 52.140625 9.632812 53.523438 8.976562 C 54.90625 8.324219 56.304688 7.703125 57.71875 7.117188 C 59.132812 6.53125 60.558594 5.980469 62 5.464844 C 63.441406 4.949219 64.894531 4.46875 66.359375 4.027344 C 67.824219 3.582031 69.296875 3.175781 70.78125 2.800781 C 72.265625 2.429688 73.757812 2.09375 75.257812 1.796875 C 76.761719 1.5 78.269531 1.238281 79.78125 1.011719 C 81.292969 0.789062 82.8125 0.601562 84.335938 0.449219 C 85.859375 0.300781 87.382812 0.1875 88.914062 0.113281 C 90.441406 0.0390625 91.96875 0 93.5 0 C 95.03125 0 96.558594 0.0390625 98.089844 0.113281 C 99.617188 0.1875 101.140625 0.300781 102.664062 0.449219 C 104.1875 0.601562 105.707031 0.789062 107.21875 1.011719 C 108.734375 1.238281 110.242188 1.5 111.742188 1.796875 C 113.242188 2.09375 114.734375 2.429688 116.21875 2.800781 C 117.703125 3.175781 119.179688 3.582031 120.640625 4.027344 C 122.105469 4.46875 123.558594 4.949219 125 5.464844 C 126.441406 5.980469 127.867188 6.53125 129.28125 7.117188 C 130.695312 7.703125 132.09375 8.324219 133.476562 8.976562 C 134.859375 9.632812 136.226562 10.320312 137.578125 11.039062 C 138.925781 11.761719 140.257812 12.515625 141.570312 13.300781 C 142.882812 14.089844 144.175781 14.90625 145.445312 15.757812 C 146.71875 16.609375 147.96875 17.488281 149.199219 18.398438 C 150.429688 19.3125 151.632812 20.253906 152.816406 21.222656 C 154 22.195312 155.15625 23.195312 156.292969 24.222656 C 157.425781 25.25 158.535156 26.304688 159.617188 27.386719 C 160.699219 28.46875 161.753906 29.574219 162.78125 30.710938 C 163.808594 31.84375 164.808594 33 165.777344 34.183594 C 166.75 35.367188 167.691406 36.574219 168.601562 37.800781 C 169.511719 39.03125 170.394531 40.28125 171.242188 41.554688 C 172.09375 42.828125 172.914062 44.121094 173.699219 45.433594 C 174.484375 46.746094 175.238281 48.074219 175.960938 49.425781 C 176.683594 50.773438 177.371094 52.140625 178.023438 53.523438 C 178.679688 54.90625 179.296875 56.304688 179.882812 57.71875 C 180.46875 59.132812 181.019531 60.558594 181.535156 62 C 182.050781 63.441406 182.53125 64.894531 182.976562 66.359375 C 183.417969 67.824219 183.828125 69.296875 184.199219 70.78125 C 184.570312 72.265625 184.90625 73.757812 185.203125 75.257812 C 185.503906 76.761719 185.765625 78.269531 185.988281 79.78125 C 186.214844 81.292969 186.402344 82.8125 186.550781 84.335938 C 186.699219 85.859375 186.8125 87.382812 186.890625 88.914062 C 186.964844 90.441406 187 91.96875 187 93.5 Z M 187 93.5 " fill-opacity="1" fill-rule="nonzero"/><path fill="#ffffff" d="M 154.214844 89.230469 C 153.226562 87.511719 151.632812 86.289062 149.734375 85.78125 C 147.839844 85.269531 145.855469 85.53125 144.144531 86.519531 C 142.425781 87.507812 141.199219 89.101562 140.691406 91.003906 L 134.558594 113.878906 C 133.664062 112.367188 132.238281 111.289062 130.53125 110.832031 C 128.800781 110.367188 127 110.601562 125.453125 111.492188 L 106.707031 122.316406 C 104.875 123.253906 103.359375 125.125 102.832031 127.101562 L 98.125 144.667969 L 95.871094 153.003906 C 95.730469 153.527344 95.839844 154.089844 96.171875 154.523438 C 96.503906 154.953125 97.015625 155.207031 97.5625 155.207031 L 117.289062 155.207031 C 117.933594 155.207031 118.523438 154.855469 118.828125 154.292969 C 119.230469 153.554688 119.671875 152.582031 120.183594 151.460938 C 121.273438 149.078125 123.09375 145.101562 124.421875 144.222656 L 141.660156 134.265625 C 143.746094 133.066406 145.238281 131.117188 145.855469 128.785156 L 154.957031 94.832031 C 155.46875 92.933594 155.203125 90.941406 154.214844 89.230469 Z M 151.578125 93.921875 L 142.476562 127.882812 C 142.097656 129.3125 141.1875 130.503906 139.914062 131.238281 L 122.632812 141.214844 C 122.613281 141.226562 122.59375 141.238281 122.570312 141.253906 C 120.527344 142.550781 118.90625 145.839844 117.003906 150.007812 C 116.726562 150.613281 116.457031 151.199219 116.214844 151.710938 L 99.84375 151.710938 L 101.503906 145.578125 L 106.210938 128.003906 C 106.484375 126.984375 107.371094 125.898438 108.320312 125.421875 C 108.351562 125.40625 108.382812 125.390625 108.414062 125.371094 L 127.199219 114.523438 C 127.9375 114.097656 128.796875 113.988281 129.625 114.210938 C 130.453125 114.433594 131.144531 114.960938 131.570312 115.695312 C 132.429688 117.1875 131.910156 119.050781 130.382812 119.9375 C 130.378906 119.9375 130.378906 119.941406 130.375 119.941406 L 116.289062 128.128906 C 115.457031 128.617188 115.171875 129.6875 115.65625 130.523438 C 115.980469 131.082031 116.570312 131.390625 117.171875 131.390625 C 117.46875 131.390625 117.773438 131.316406 118.046875 131.15625 L 132.191406 122.933594 C 132.195312 122.929688 132.195312 122.929688 132.199219 122.925781 L 134.386719 121.65625 C 136.132812 120.640625 136.644531 119.609375 137.390625 116.816406 L 144.070312 91.910156 C 144.339844 90.910156 144.984375 90.070312 145.890625 89.550781 C 146.789062 89.03125 147.832031 88.890625 148.828125 89.160156 C 149.824219 89.425781 150.664062 90.070312 151.183594 90.976562 C 151.707031 91.878906 151.847656 92.925781 151.578125 93.921875 Z M 88.882812 144.671875 L 84.171875 127.101562 C 83.648438 125.128906 82.128906 123.253906 80.292969 122.316406 L 61.546875 111.492188 C 60.003906 110.601562 58.203125 110.367188 56.46875 110.828125 C 54.761719 111.285156 53.335938 112.367188 52.441406 113.878906 L 46.3125 91.003906 C 45.800781 89.101562 44.578125 87.511719 42.867188 86.523438 C 41.152344 85.53125 39.164062 85.269531 37.265625 85.78125 C 35.367188 86.289062 33.777344 87.511719 32.785156 89.226562 C 31.800781 90.9375 31.535156 92.925781 32.042969 94.828125 L 41.144531 128.789062 C 41.773438 131.128906 43.265625 133.074219 45.34375 134.265625 L 62.585938 144.222656 C 63.910156 145.101562 65.730469 149.082031 66.820312 151.464844 C 67.335938 152.585938 67.777344 153.554688 68.175781 154.292969 C 68.480469 154.855469 69.074219 155.207031 69.714844 155.207031 L 89.4375 155.207031 C 89.980469 155.207031 90.496094 154.957031 90.828125 154.523438 C 91.15625 154.089844 91.269531 153.53125 91.128906 153.003906 Z M 70.792969 151.710938 C 70.546875 151.199219 70.28125 150.613281 70.003906 150.007812 C 68.09375 145.839844 66.472656 142.550781 64.4375 141.253906 C 64.414062 141.242188 64.394531 141.226562 64.371094 141.214844 L 47.089844 131.234375 C 45.820312 130.507812 44.90625 129.316406 44.523438 127.878906 L 35.421875 93.925781 C 34.867188 91.851562 36.101562 89.714844 38.175781 89.160156 C 39.171875 88.890625 40.214844 89.03125 41.117188 89.550781 C 42.019531 90.074219 42.664062 90.914062 42.933594 91.910156 L 49.605469 116.820312 C 50.359375 119.613281 50.875 120.644531 52.621094 121.660156 L 54.808594 122.929688 C 54.808594 122.929688 54.8125 122.933594 54.8125 122.933594 L 68.949219 131.15625 C 69.226562 131.316406 69.527344 131.394531 69.828125 131.394531 C 70.429688 131.394531 71.015625 131.082031 71.339844 130.523438 C 71.824219 129.6875 71.542969 128.617188 70.707031 128.132812 L 56.628906 119.941406 C 56.625 119.941406 56.625 119.9375 56.621094 119.9375 L 56.609375 119.933594 C 55.09375 119.042969 54.574219 117.183594 55.429688 115.695312 C 55.855469 114.960938 56.546875 114.433594 57.375 114.210938 C 58.203125 113.988281 59.0625 114.097656 59.796875 114.523438 L 78.585938 125.375 C 78.613281 125.390625 78.644531 125.40625 78.675781 125.421875 C 79.632812 125.898438 80.523438 126.984375 80.792969 128.007812 L 85.503906 145.582031 L 87.15625 151.710938 Z M 99.171875 120.496094 L 99.9375 117.476562 C 101.292969 117.0625 102.605469 116.515625 103.867188 115.84375 L 106.535156 117.4375 C 108.160156 118.417969 110.238281 118.164062 111.585938 116.816406 L 113.945312 114.464844 C 115.296875 113.101562 115.546875 111.074219 114.566406 109.421875 L 112.96875 106.746094 C 113.632812 105.496094 114.179688 104.183594 114.59375 102.820312 L 117.628906 102.054688 C 119.15625 101.660156 120.292969 100.449219 120.632812 98.964844 L 127.550781 98.964844 C 128.363281 98.964844 129.070312 98.40625 129.253906 97.613281 L 134.820312 73.859375 C 135.433594 73.929688 136.054688 73.972656 136.6875 73.972656 C 145.371094 73.972656 152.4375 66.90625 152.4375 58.222656 C 152.4375 49.539062 145.371094 42.472656 136.6875 42.472656 C 128.003906 42.472656 120.9375 49.539062 120.9375 58.222656 C 120.9375 65.058594 125.316406 70.886719 131.414062 73.0625 L 126.167969 95.464844 L 120.738281 95.464844 L 120.738281 94.722656 C 120.738281 92.824219 119.457031 91.171875 117.621094 90.710938 L 114.59375 89.945312 C 114.179688 88.585938 113.636719 87.269531 112.96875 86.015625 L 114.566406 83.339844 C 115.53125 81.71875 115.277344 79.644531 113.9375 78.292969 L 111.582031 75.9375 C 110.238281 74.605469 108.164062 74.347656 106.542969 75.316406 L 103.867188 76.914062 C 102.613281 76.246094 101.296875 75.703125 99.9375 75.289062 L 99.171875 72.265625 C 98.71875 70.457031 97.113281 69.1875 95.253906 69.144531 L 95.253906 63.195312 C 103.117188 62.320312 109.253906 55.636719 109.253906 47.542969 C 109.253906 38.859375 102.1875 31.792969 93.503906 31.792969 C 84.820312 31.792969 77.753906 38.859375 77.753906 47.542969 C 77.753906 55.636719 83.890625 62.320312 91.753906 63.195312 L 91.753906 69.144531 C 89.890625 69.183594 88.28125 70.453125 87.828125 72.261719 L 87.0625 75.289062 C 85.699219 75.703125 84.386719 76.25 83.140625 76.914062 L 80.457031 75.316406 C 78.808594 74.335938 76.78125 74.585938 75.410156 75.949219 L 73.066406 78.296875 C 71.71875 79.644531 71.464844 81.722656 72.441406 83.339844 L 74.039062 86.011719 C 73.367188 87.265625 72.820312 88.582031 72.402344 89.945312 L 69.390625 90.710938 C 67.546875 91.171875 66.257812 92.820312 66.257812 94.722656 L 66.257812 95.464844 L 60.832031 95.464844 L 55.585938 73.0625 C 61.683594 70.886719 66.0625 65.058594 66.0625 58.222656 C 66.0625 49.539062 58.996094 42.472656 50.3125 42.472656 C 41.625 42.472656 34.5625 49.539062 34.5625 58.222656 C 34.5625 66.90625 41.625 73.972656 50.3125 73.972656 C 50.941406 73.972656 51.566406 73.929688 52.179688 73.859375 L 57.742188 97.613281 C 57.929688 98.40625 58.632812 98.964844 59.445312 98.964844 L 66.367188 98.964844 C 66.707031 100.449219 67.851562 101.660156 69.386719 102.054688 L 72.40625 102.820312 C 72.820312 104.179688 73.367188 105.492188 74.039062 106.746094 L 72.445312 109.417969 C 71.464844 111.046875 71.722656 113.125 73.070312 114.476562 L 75.414062 116.816406 C 76.757812 118.160156 78.835938 118.417969 80.464844 117.441406 L 83.136719 115.84375 C 84.390625 116.515625 85.707031 117.0625 87.0625 117.476562 L 87.828125 120.492188 C 88.289062 122.335938 89.9375 123.625 91.839844 123.625 L 95.160156 123.625 C 97.0625 123.625 98.710938 122.335938 99.171875 120.496094 Z M 124.4375 58.222656 C 124.4375 51.464844 129.933594 45.96875 136.6875 45.96875 C 143.445312 45.96875 148.9375 51.464844 148.9375 58.222656 C 148.9375 64.976562 143.445312 70.472656 136.6875 70.472656 C 129.933594 70.472656 124.4375 64.976562 124.4375 58.222656 Z M 38.058594 58.222656 C 38.058594 51.464844 43.554688 45.96875 50.308594 45.96875 C 57.066406 45.96875 62.5625 51.464844 62.5625 58.222656 C 62.5625 64.976562 57.066406 70.472656 50.308594 70.472656 C 43.554688 70.472656 38.058594 64.976562 38.058594 58.222656 Z M 81.25 47.542969 C 81.25 40.789062 86.746094 35.292969 93.503906 35.292969 C 100.257812 35.292969 105.753906 40.789062 105.753906 47.542969 C 105.753906 54.296875 100.257812 59.792969 93.503906 59.792969 C 86.746094 59.792969 81.25 54.296875 81.25 47.542969 Z M 96.792969 115.636719 L 95.777344 119.644531 C 95.703125 119.941406 95.46875 120.125 95.160156 120.125 L 91.839844 120.125 C 91.53125 120.125 91.292969 119.941406 91.21875 119.640625 L 90.207031 115.636719 C 90.046875 115.015625 89.5625 114.53125 88.941406 114.371094 C 87.207031 113.929688 85.546875 113.238281 84.011719 112.320312 C 83.734375 112.15625 83.425781 112.074219 83.113281 112.074219 C 82.804688 112.074219 82.492188 112.15625 82.214844 112.320312 L 78.664062 114.441406 C 78.398438 114.601562 78.105469 114.5625 77.886719 114.34375 L 75.539062 111.996094 C 75.320312 111.777344 75.28125 111.484375 75.445312 111.214844 L 77.5625 107.664062 C 77.890625 107.113281 77.890625 106.421875 77.5625 105.871094 C 76.640625 104.335938 75.953125 102.675781 75.511719 100.941406 C 75.351562 100.320312 74.867188 99.835938 74.242188 99.675781 L 70.25 98.664062 C 69.945312 98.589844 69.757812 98.351562 69.757812 98.042969 L 69.757812 94.722656 C 69.757812 94.414062 69.941406 94.179688 70.242188 94.101562 L 74.242188 93.089844 C 74.867188 92.933594 75.351562 92.445312 75.511719 91.824219 C 75.953125 90.078125 76.640625 88.417969 77.558594 86.890625 C 77.890625 86.339844 77.890625 85.648438 77.5625 85.09375 L 75.441406 81.539062 C 75.285156 81.28125 75.324219 80.988281 75.539062 80.769531 L 77.878906 78.425781 C 78.101562 78.203125 78.40625 78.164062 78.667969 78.320312 L 82.21875 80.441406 C 82.769531 80.769531 83.460938 80.769531 84.011719 80.4375 C 85.535156 79.527344 87.195312 78.839844 88.941406 78.394531 C 89.5625 78.238281 90.050781 77.75 90.207031 77.128906 L 91.21875 73.117188 C 91.292969 72.828125 91.535156 72.640625 91.839844 72.640625 L 95.160156 72.640625 C 95.46875 72.640625 95.707031 72.824219 95.78125 73.117188 L 96.792969 77.128906 C 96.949219 77.75 97.4375 78.238281 98.058594 78.394531 C 99.796875 78.835938 101.460938 79.523438 102.996094 80.4375 C 103.550781 80.769531 104.238281 80.769531 104.789062 80.4375 L 108.335938 78.320312 C 108.597656 78.164062 108.898438 78.203125 109.113281 78.417969 L 111.460938 80.761719 C 111.679688 80.984375 111.71875 81.285156 111.5625 81.546875 L 109.445312 85.09375 C 109.113281 85.644531 109.113281 86.332031 109.441406 86.886719 C 110.359375 88.421875 111.046875 90.085938 111.488281 91.824219 C 111.644531 92.445312 112.132812 92.933594 112.753906 93.089844 L 116.765625 94.101562 C 117.058594 94.175781 117.242188 94.414062 117.242188 94.722656 L 117.242188 98.042969 C 117.242188 98.347656 117.054688 98.589844 116.761719 98.664062 L 112.753906 99.675781 C 112.132812 99.832031 111.648438 100.320312 111.488281 100.941406 C 111.042969 102.6875 110.355469 104.347656 109.445312 105.871094 C 109.113281 106.421875 109.113281 107.113281 109.445312 107.664062 L 111.558594 111.207031 C 111.71875 111.476562 111.679688 111.78125 111.46875 111.992188 L 109.113281 114.339844 C 108.894531 114.558594 108.601562 114.597656 108.335938 114.4375 L 104.789062 112.320312 C 104.238281 111.992188 103.550781 111.988281 102.996094 112.320312 C 101.445312 113.242188 99.785156 113.933594 98.058594 114.371094 C 97.4375 114.53125 96.949219 115.015625 96.792969 115.636719 Z M 108.105469 96.378906 C 108.105469 88.328125 101.554688 81.777344 93.503906 81.777344 C 85.449219 81.777344 78.898438 88.328125 78.898438 96.378906 C 78.898438 104.429688 85.449219 110.980469 93.503906 110.980469 C 101.554688 110.980469 108.105469 104.429688 108.105469 96.378906 Z M 93.503906 107.484375 C 87.378906 107.484375 82.398438 102.503906 82.398438 96.378906 C 82.398438 90.257812 87.378906 85.273438 93.503906 85.273438 C 99.625 85.273438 104.609375 90.257812 104.609375 96.378906 C 104.605469 102.503906 99.625 107.484375 93.503906 107.484375 Z M 102.09375 94.289062 C 101.886719 93.65625 101.34375 93.195312 100.683594 93.097656 L 96.808594 92.523438 L 95.070312 89.015625 C 94.773438 88.421875 94.167969 88.042969 93.503906 88.042969 C 92.839844 88.042969 92.230469 88.417969 91.9375 89.015625 L 90.191406 92.523438 L 86.3125 93.097656 C 85.65625 93.195312 85.109375 93.65625 84.90625 94.289062 C 84.699219 94.921875 84.871094 95.613281 85.347656 96.078125 L 88.148438 98.816406 L 87.492188 102.679688 C 87.382812 103.335938 87.652344 103.996094 88.1875 104.386719 C 88.496094 104.609375 88.855469 104.722656 89.21875 104.722656 C 89.496094 104.722656 89.773438 104.65625 90.027344 104.523438 L 93.503906 102.707031 L 96.96875 104.523438 C 97.558594 104.828125 98.269531 104.777344 98.808594 104.386719 C 99.34375 104 99.613281 103.335938 99.503906 102.683594 L 98.855469 98.816406 L 101.652344 96.078125 C 102.128906 95.613281 102.296875 94.921875 102.09375 94.289062 Z M 95.757812 96.957031 C 95.347656 97.355469 95.160156 97.933594 95.253906 98.496094 L 95.472656 99.789062 L 94.3125 99.183594 C 93.804688 98.917969 93.199219 98.917969 92.691406 99.183594 L 91.53125 99.789062 L 91.75 98.5 C 91.84375 97.933594 91.660156 97.355469 91.25 96.957031 L 90.3125 96.042969 L 91.605469 95.851562 C 92.171875 95.765625 92.660156 95.410156 92.914062 94.898438 L 93.5 93.726562 L 94.082031 94.898438 C 94.335938 95.410156 94.824219 95.765625 95.390625 95.851562 L 96.6875 96.042969 Z M 135.539062 64.347656 C 135.1875 64.347656 134.832031 64.242188 134.523438 64.019531 L 129.757812 60.609375 C 128.972656 60.046875 128.789062 58.953125 129.351562 58.167969 C 129.914062 57.382812 131.007812 57.199219 131.792969 57.761719 L 135.21875 60.214844 L 141.242188 52.746094 C 141.847656 51.996094 142.949219 51.878906 143.699219 52.484375 C 144.453125 53.089844 144.570312 54.191406 143.964844 54.945312 L 136.902344 63.695312 C 136.558594 64.125 136.050781 64.347656 135.539062 64.347656 Z M 57.59375 54.945312 L 50.53125 63.695312 C 50.1875 64.125 49.679688 64.347656 49.167969 64.347656 C 48.816406 64.347656 48.460938 64.242188 48.152344 64.023438 L 43.378906 60.609375 C 42.59375 60.046875 42.414062 58.953125 42.972656 58.167969 C 43.535156 57.382812 44.628906 57.199219 45.414062 57.761719 L 48.84375 60.214844 L 54.871094 52.746094 C 55.476562 51.996094 56.578125 51.878906 57.328125 52.484375 C 58.082031 53.089844 58.199219 54.191406 57.59375 54.945312 Z M 92.355469 53.667969 C 92 53.667969 91.644531 53.5625 91.339844 53.34375 L 86.566406 49.929688 C 85.78125 49.367188 85.597656 48.273438 86.160156 47.488281 C 86.722656 46.703125 87.8125 46.519531 88.601562 47.082031 L 92.03125 49.535156 L 98.054688 42.066406 C 98.660156 41.316406 99.761719 41.199219 100.515625 41.804688 C 101.265625 42.410156 101.382812 43.511719 100.777344 44.265625 L 93.71875 53.019531 C 93.371094 53.445312 92.867188 53.667969 92.355469 53.667969 Z M 92.355469 53.667969 " fill-opacity="1" fill-rule="nonzero"/></svg>